<svg id="Ebene_1" data-name="Ebene 1" xmlns="http://www.w3.org/2000/svg" viewBox="0 0 841.89 359.08"><defs><style>.cls-1{fill:#b5b5b5;}.cls-2{fill:#ffb81e;}.cls-3{fill:#c4c5c5;}</style></defs><title>coit_logo_www</title><polygon class="cls-1" points="321.35 264.2 311.79 295.4 301.5 264.2 296.3 264.2 286.01 295.4 276.45 264.2 270.13 264.2 282.61 303.34 288.69 303.34 298.9 271.9 309.12 303.34 315.19 303.34 327.68 264.2 321.35 264.2"/><polygon class="cls-1" points="380.84 264.2 371.28 295.4 360.99 264.2 355.79 264.2 345.5 295.4 335.94 264.2 329.61 264.2 342.1 303.34 348.18 303.34 358.38 271.9 368.6 303.34 374.68 303.34 387.17 264.2 380.84 264.2"/><polygon class="cls-1" points="440.33 264.2 430.77 295.4 420.47 264.2 415.29 264.2 404.99 295.4 395.43 264.2 389.11 264.2 401.58 303.34 407.67 303.34 417.88 271.9 428.1 303.34 434.17 303.34 446.66 264.2 440.33 264.2"/><path class="cls-1" d="M467,281.34c0-13,8.83-23,21.91-23,8,0,12.74,3.29,16.1,7.65l-4.55,4.18a13,13,0,0,0-11.18-5.73c-9.36,0-15.18,7.18-15.18,16.91s5.82,17,15.18,17a13.24,13.24,0,0,0,11.18-5.73L505,296.8c-3.36,4.36-8.1,7.64-16.1,7.64-13.08,0-21.91-10-21.91-23.1"/><path class="cls-1" d="M512,281.34c0-12.72,8.36-23,21.73-23s21.74,10.29,21.74,23-8.38,23.1-21.74,23.1S512,294.08,512,281.34m36.29,0c0-8.91-5.19-16.91-14.56-16.91s-14.63,8-14.63,16.91,5.27,17,14.63,17,14.56-8,14.56-17"/><rect class="cls-1" x="562.45" y="278.35" width="21.82" height="5.99"/><rect class="cls-1" x="594.09" y="250.08" width="7.54" height="53.27"/><polygon class="cls-1" points="611.63 250.07 611.63 256.8 627.25 256.8 627.25 303.34 634.8 303.34 634.8 256.8 650.51 256.8 650.51 250.07 611.63 250.07"/><path class="cls-1" d="M670.69,283.73c0-11.34,8.1-20.51,19.29-20.51,11.83,0,18.8,9.25,18.8,21v1.54H677.09c.49,7.37,5.67,13.54,14.11,13.54a17.11,17.11,0,0,0,12.07-5l2.92,4c-3.89,3.88-9.16,6-15.56,6-11.59,0-19.94-8.35-19.94-20.59m19.21-15.49c-8.35,0-12.48,7.06-12.81,13.06h25.7c-.09-5.83-4-13.06-12.89-13.06"/><path class="cls-1" d="M744.61,303.35v-5.51a19.18,19.18,0,0,1-14,6.48c-8.18,0-12.47-4-12.47-12.49V264.2h6.07V290c0,6.89,3.49,8.92,8.75,8.92a15,15,0,0,0,11.6-5.92V264.2h6.08v39.15Z"/><path class="cls-1" d="M254.05,75.65a50.27,50.27,0,0,0-22.7,19.93c-7.64,12.4-11.52,28.58-11.52,48.1,0,16.22,2.53,30,7.52,41.12,7.69,16.9,20.85,27.27,39.07,30.84,5.15,1,12.59,1.51,22.14,1.51h52.3V186.42H294.59c-11.22,0-19.51-2.12-24.63-6.27-7.36-6-11.09-19.24-11.09-39.28,0-15,2.38-25.32,7.08-30.75,5.7-6.57,14.95-9.9,27.5-9.9h47.41V69.48H290c-14.58,0-26.69,2.08-36,6.17"/><path class="cls-1" d="M495.15,106.26c-5.3-14.26-14.76-24.55-28.08-30.6-11.07-5-24-7.53-38.59-7.53h0c-22.48.14-39.87,5.33-51.71,15.45-14,12-21.14,32.18-21.14,60,0,15.55,2.74,29,8.13,40,5.49,11.16,13.55,19.48,24,24.73,12.19,6.14,26.64,9.25,42.94,9.25,12.57,0,23.86-2,33.58-5.81,13.23-5.25,23.14-14.68,29.48-28.06,5.06-10.94,7.63-24,7.63-38.74s-2.08-27.7-6.2-38.63m-32.83,36.61c0,15.67-2.8,27.3-8.29,34.57S440.39,188,428.79,188c-12,0-20.46-3.42-25.81-10.45-5.53-7.3-8.33-19.08-8.33-35,0-15.05,2.21-26,6.57-32.59,5.5-8.33,14.48-12.38,27.46-12.38s21.8,4.22,26.89,12.71c4.47,7.36,6.75,18.31,6.75,32.58"/><rect class="cls-1" x="522.12" y="129.08" width="60.25" height="27.46"/><path class="cls-1" d="M135.21,263.86a58.12,58.12,0,0,1-41-23.69L52.35,264.32a106.21,106.21,0,0,0,82.86,47.84Z"/><path class="cls-1" d="M94.19,171.86a58.08,58.08,0,0,1,41-23.69V99.88a106.26,106.26,0,0,0-82.87,47.83Z"/><rect class="cls-2" x="604.2" y="47.74" width="39.84" height="169.4"/><path class="cls-3" d="M448.84,299.75a4.46,4.46,0,1,1,4.45,4.46,4.49,4.49,0,0,1-4.45-4.46"/><path class="cls-3" d="M653.35,299.75a4.46,4.46,0,1,1,4.46,4.46,4.49,4.49,0,0,1-4.46-4.46"/><polygon class="cls-2" points="664.41 47.99 664.41 79.51 712.54 79.51 712.54 217.15 751.89 217.15 751.89 79.51 805.89 79.51 805.89 47.99 664.41 47.99"/><path class="cls-2" d="M84.16,206a58,58,0,0,1,5-23.69L47.35,158.17a106.52,106.52,0,0,0,0,95.69L89.2,229.71a58,58,0,0,1-5-23.69"/><path class="cls-2" d="M189.38,240.17a58.08,58.08,0,0,1-41,23.7v48.29a106.23,106.23,0,0,0,82.86-47.83Z"/><path class="cls-2" d="M188,206a45.72,45.72,0,1,1-45.72-45.72A45.72,45.72,0,0,1,188,206"/></svg>